<?xml version="1.0" standalone="no"?>
<!DOCTYPE svg PUBLIC "-//W3C//DTD SVG 20010904//EN"
 "http://www.w3.org/TR/2001/REC-SVG-20010904/DTD/svg10.dtd">
<svg version="1.0" xmlns="http://www.w3.org/2000/svg"
 width="1280.000000pt" height="1280.000000pt" viewBox="0 0 1280.000000 1280.000000"
 preserveAspectRatio="xMidYMid meet">

<g transform="translate(0.000000,1280.000000) scale(0.100000,-0.100000)"
fill="#000000" stroke="none">
<path d="M8780 12473 c-40 -6 -401 -91 -565 -133 -82 -21 -167 -41 -187 -44
-43 -8 -91 -45 -116 -90 -15 -27 -17 -64 -16 -306 0 -151 6 -327 12 -390 15
-134 28 -540 19 -564 -5 -14 -14 -11 -53 19 -26 20 -59 42 -75 51 -16 8 -33
23 -39 34 -8 15 -21 20 -49 20 -21 0 -60 7 -87 15 -105 32 -158 37 -235 20
-186 -38 -295 -147 -365 -363 -27 -84 -27 -84 -58 -79 -17 2 -89 26 -161 52
-182 66 -212 74 -296 81 -220 18 -396 -7 -592 -85 -70 -28 -133 -51 -140 -51
-6 0 -27 47 -46 105 -21 66 -51 131 -80 175 -41 64 -53 75 -116 105 -78 38
-195 65 -282 65 -256 0 -494 -194 -583 -475 -18 -55 -24 -102 -27 -220 l-5
-150 44 -95 c53 -111 107 -183 186 -245 41 -32 66 -45 90 -45 27 0 32 -4 32
-24 0 -13 -46 -138 -101 -278 -125 -311 -144 -374 -159 -513 -15 -145 -4 -236
45 -352 49 -118 106 -233 116 -233 5 0 11 11 14 25 3 14 7 36 10 50 7 33 29
32 53 -2 29 -41 152 -290 152 -308 0 -23 -157 -93 -435 -194 -442 -159 -531
-197 -566 -237 -27 -31 -60 -103 -238 -516 -237 -554 -326 -731 -441 -878 -15
-19 -33 -53 -40 -75 -7 -22 -33 -89 -57 -148 -23 -60 -43 -117 -43 -126 0 -9
-8 -27 -17 -40 -12 -19 -17 -54 -21 -151 -5 -133 14 -265 59 -412 10 -34 17
-63 16 -64 -2 -2 -63 2 -137 7 -95 8 -221 7 -425 -1 -424 -16 -576 -17 -602
-2 l-23 13 0 1151 c0 920 -3 1214 -16 1462 -9 171 -14 392 -12 491 4 168 6
184 28 230 21 41 30 51 55 53 17 2 36 8 43 14 16 14 15 58 -3 103 -13 29 -14
44 -5 69 l11 33 202 6 c270 9 529 8 544 -1 9 -6 13 -197 15 -805 l3 -797 -25
0 c-37 0 -69 -27 -91 -74 -61 -135 36 -334 153 -312 65 12 145 112 155 193 8
68 -9 113 -67 176 l-48 52 9 160 c4 88 8 440 9 781 l0 622 28 6 c15 3 170 0
345 -6 473 -17 706 5 700 67 -11 110 -14 336 -5 367 l10 38 -161 51 c-412 129
-1179 390 -1747 594 -382 138 -443 157 -452 143 -16 -27 -24 -34 -78 -62 -92
-48 -191 -111 -510 -321 -351 -232 -443 -289 -555 -342 l-80 -38 -300 -6
c-165 -3 -301 -6 -302 -7 -2 -1 -3 -99 -3 -217 l0 -215 45 0 c63 0 72 -19 85
-170 13 -159 15 -169 46 -180 52 -20 432 -4 470 20 34 21 44 59 44 169 l0 106
167 0 c93 0 247 4 343 9 97 5 202 6 234 2 l59 -8 -7 -98 c-7 -95 -6 -99 16
-114 15 -11 33 -14 55 -10 l33 6 2 -1706 3 -1706 -180 -3 c-99 -1 -243 -2
-320 -2 l-140 0 -6 -70 c-3 -38 -1 -81 5 -95 5 -14 10 -29 11 -35 0 -5 4 -15
8 -21 4 -7 8 -28 9 -48 3 -38 4 -38 53 -21 16 5 17 5 5 -4 -14 -10 -7 -16 15
-11 31 6 340 -2 354 -10 12 -6 22 -5 29 2 9 9 18 9 34 1 27 -13 310 -23 715
-24 168 0 285 -4 289 -10 3 -5 -3 -24 -13 -42 -18 -30 -24 -33 -94 -41 -145
-17 -971 -2 -1071 19 -37 8 -82 17 -100 20 -43 6 -97 23 -78 24 13 1 13 2 0
11 -9 6 -17 5 -21 -1 -4 -7 -23 -6 -55 3 -27 7 -41 14 -31 16 21 4 23 19 2 19
-8 0 -17 -7 -20 -16 -9 -30 -16 -569 -7 -575 20 -12 201 -9 216 3 11 9 30 11
63 6 59 -9 494 -12 863 -5 319 6 320 5 320 -65 0 -40 -2 -45 -23 -45 -13 0
-28 5 -33 10 -17 17 -1674 -1 -1674 -18 0 -25 23 -81 35 -86 8 -3 21 -30 30
-60 15 -52 23 -61 117 -138 56 -46 115 -100 132 -121 l31 -39 3 -965 c2 -850
1 -969 -13 -989 -8 -13 -15 -34 -15 -47 0 -16 -21 -48 -56 -88 -31 -34 -63
-78 -70 -96 -8 -18 -20 -33 -27 -33 -6 0 -20 -18 -31 -39 -10 -22 -47 -75 -82
-118 -106 -130 -87 -155 108 -134 l122 13 19 -23 c13 -16 16 -31 11 -49 -3
-14 -10 -117 -14 -230 -9 -226 -24 -399 -39 -442 l-10 -28 983 0 983 0 23 -50
c40 -85 98 -106 227 -83 65 11 207 12 848 6 424 -4 840 -7 925 -5 304 6 2070
24 2360 24 162 -1 763 -5 1335 -9 572 -5 1092 -5 1155 0 63 4 147 10 185 11
l70 4 9 50 c8 48 10 50 45 56 108 16 827 28 1414 22 581 -5 646 -4 632 10 -8
8 -19 13 -23 10 -5 -3 -7 7 -4 22 2 15 -4 61 -13 102 -9 44 -20 165 -25 295
-6 121 -13 241 -16 268 -6 41 -4 47 12 48 47 2 115 -4 189 -17 44 -8 92 -14
107 -14 l27 0 -24 69 c-13 37 -37 93 -54 122 -88 162 -289 722 -466 1299 -31
102 -74 239 -95 305 -21 66 -69 215 -106 330 -50 157 -83 241 -131 332 -73
138 -85 172 -71 197 9 16 25 17 186 11 124 -5 191 -4 222 4 89 23 156 55 200
95 25 23 56 50 70 61 37 29 70 75 70 96 0 28 -49 48 -148 59 -54 6 -351 9
-742 8 -707 -2 -678 -4 -664 52 3 14 7 26 8 27 1 1 318 3 704 3 l702 1 0 87
c0 48 3 98 5 112 5 22 4 22 -4 5 -8 -16 -10 -12 -12 25 -2 25 -2 60 -1 78 1
18 -3 30 -8 27 -5 -3 -8 36 -8 95 1 55 5 95 10 88 5 -9 8 -10 8 -1 0 22 -20
24 -73 10 -62 -18 -140 -24 -482 -40 -266 -12 -795 -14 -840 -3 -47 12 -26
104 23 107 9 0 305 2 657 3 352 2 659 6 682 11 48 8 67 31 89 103 15 51 90
146 107 135 5 -3 7 -1 4 4 -4 6 2 22 13 35 11 14 18 27 16 29 -7 7 -1079 1
-1162 -6 l-80 -8 -10 49 c-8 39 -6 62 7 112 11 38 14 62 7 62 -5 0 -8 6 -5 14
9 24 9 231 1 616 -5 201 -9 415 -9 477 0 61 -3 109 -7 107 -4 -3 -6 147 -4
333 1 186 0 369 -2 406 l-5 68 -221 110 c-121 61 -224 116 -229 122 -9 13 -1
788 9 987 l6 116 -66 28 c-37 16 -137 75 -223 132 -206 137 -277 157 -392 113
-30 -11 -60 -18 -67 -15 -24 9 -27 104 -16 576 7 261 8 490 4 507 -5 25 -30
51 -107 114 -55 45 -124 93 -153 105 -36 17 -56 32 -63 51 -13 34 -13 151 1
253 12 97 13 979 0 1088 -9 81 -11 85 -57 134 -46 48 -381 315 -500 399 -56
38 -76 43 -143 32z m46 -135 c5 -18 9 -404 9 -858 1 -609 4 -839 13 -879 15
-68 17 -1607 2 -2216 -6 -225 -12 -534 -15 -685 -2 -151 -4 -281 -5 -287 0 -9
-9 -8 -34 3 -30 15 -35 23 -45 73 -28 139 -34 314 -35 946 0 442 6 831 19
1215 14 406 19 785 20 1345 0 800 -9 1077 -41 1254 -17 92 -16 94 41 113 46
14 62 9 71 -24z m-185 -2258 c-2 -1229 -5 -2236 -6 -2238 -2 -2 -22 7 -44 20
-40 23 -41 24 -43 83 -2 33 -3 996 -3 2140 0 1144 -4 2109 -9 2145 -8 62 -7
65 15 77 13 6 40 10 59 10 l35 -2 -4 -2235z m-157 2202 c2 -4 -2 -37 -9 -72
-11 -50 -14 -168 -15 -503 0 -241 -7 -787 -16 -1215 -23 -1088 -10 -2228 27
-2490 7 -45 9 -85 5 -89 -9 -9 -98 15 -114 31 -16 16 -16 44 -3 206 28 356 38
1467 21 2370 -5 267 -12 766 -16 1110 l-7 625 49 16 c58 20 71 22 78 11z
m-188 -49 c-28 -97 -32 -1137 -7 -1698 55 -1196 61 -1915 21 -2330 -5 -55 -11
-129 -13 -165 -3 -61 -4 -65 -28 -66 -13 0 -36 8 -52 19 l-27 19 2 1571 c2
865 -1 1816 -6 2114 l-8 542 25 -4 c14 -3 36 -1 49 4 36 15 50 13 44 -6z
m-178 -2103 l-3 -2090 -50 0 -50 0 0 1098 c0 1044 1 1101 19 1172 24 94 24
231 3 505 -9 110 -22 277 -29 370 -17 227 -17 807 0 900 23 127 28 135 73 135
l40 0 -3 -2090z m-2698 799 c76 -35 150 -104 150 -140 0 -20 -3 -19 -57 12
-106 61 -124 68 -190 75 -171 18 -335 -76 -417 -239 -44 -88 -63 -224 -47
-340 13 -93 38 -166 68 -199 9 -10 11 -18 6 -18 -18 0 -107 103 -130 151 -61
126 -52 301 22 446 128 249 375 354 595 252z m2272 -7 c36 -18 73 -41 81 -50
9 -9 27 -30 41 -45 14 -15 26 -34 26 -42 0 -19 -26 -19 -33 -1 -3 8 -27 24
-53 35 -206 91 -357 81 -468 -33 -40 -42 -56 -72 -100 -198 -19 -52 -44 -68
-63 -42 -57 77 70 299 212 371 76 39 92 43 195 40 85 -2 103 -6 162 -35z
m-1095 -298 c251 -40 534 -188 731 -383 240 -237 487 -700 551 -1031 17 -90
23 -193 13 -220 -9 -24 -10 -23 -35 25 -14 28 -27 46 -27 40 -4 -26 1 -232 6
-247 3 -10 1 -18 -5 -18 -21 0 -40 32 -51 86 -9 43 -15 54 -28 52 -13 -2 -18
-16 -20 -53 -5 -103 -32 -226 -62 -285 -40 -79 -50 -83 -51 -18 l0 53 -14 -36
c-32 -87 -165 -295 -173 -270 -2 6 4 45 12 87 23 112 12 110 -56 -8 -64 -112
-108 -178 -117 -178 -13 0 -24 55 -15 82 6 23 -23 -1 -163 -134 l-43 -39 0 40
c0 32 4 41 18 42 15 1 15 2 -1 6 -13 3 -17 11 -13 24 3 10 9 29 13 41 4 14
-17 -1 -63 -44 -116 -110 -241 -215 -286 -241 -82 -48 -217 -98 -246 -91 -21
4 -24 3 -12 -5 11 -8 0 -11 -45 -11 -45 0 -56 3 -45 11 12 8 9 9 -13 5 -31 -7
-107 10 -107 24 0 5 -12 17 -27 25 -24 14 -25 16 -5 12 12 -3 20 -1 16 4 -3 5
-14 9 -26 9 -14 0 -18 5 -14 15 3 8 1 15 -5 15 -5 0 -12 -7 -15 -15 -4 -8 -10
-12 -15 -9 -5 3 -9 0 -9 -6 0 -7 8 -9 21 -5 14 5 19 3 15 -4 -4 -6 7 -17 26
-25 18 -8 28 -15 21 -15 -32 -2 -186 85 -177 101 4 7 9 6 14 -1 3 -7 14 -9 24
-5 15 6 15 7 -1 19 -15 11 -21 11 -35 -2 -20 -18 -38 -10 -31 15 2 10 -5 26
-18 37 -12 11 -19 15 -16 8 13 -21 -36 -11 -63 13 -14 12 -51 40 -82 62 -32
21 -55 42 -52 45 3 3 12 3 19 1 7 -3 16 -1 20 5 4 7 0 8 -11 4 -11 -4 -15 -3
-10 5 6 10 -133 122 -151 122 -12 0 47 -47 90 -72 20 -12 37 -25 37 -30 0 -11
-17 -10 -24 1 -8 12 -46 21 -46 10 0 -5 9 -9 19 -9 11 0 23 -5 26 -10 4 -6 16
-8 28 -4 18 5 20 4 10 -7 -10 -10 -18 -10 -38 -1 -21 10 -30 9 -46 -1 -10 -8
-16 -17 -12 -20 3 -4 12 1 19 11 12 15 12 15 7 -5 -10 -42 -71 -23 -132 41
-19 20 -39 36 -44 36 -9 0 -6 -34 8 -77 10 -32 -11 -29 -32 5 -9 15 -35 47
-59 72 -23 25 -45 55 -49 68 -11 37 -30 19 -29 -27 1 -35 -2 -41 -21 -41 -29
0 -82 58 -154 169 -59 91 -86 158 -152 389 -9 30 -17 42 -28 40 -16 -3 -53
-66 -64 -110 -6 -22 -7 -22 -24 -5 -15 15 -17 33 -15 126 2 66 -1 112 -7 116
-10 6 -35 -15 -59 -51 -12 -18 -12 -17 -7 6 3 14 8 57 11 95 13 164 80 412
156 580 148 326 366 590 625 761 299 197 596 263 940 208z m2630 -91 c4 -49 7
-407 6 -796 l-3 -709 63 7 c78 9 613 83 648 90 l25 6 0 -448 c0 -246 2 -1053
4 -1793 3 -740 1 -1375 -3 -1412 l-9 -68 -47 0 -47 0 -13 75 c-11 60 -11 105
-2 232 8 113 11 607 10 1716 l-2 1557 -58 0 -58 0 -3 -1352 c-3 -1049 -1
-1451 10 -1791 9 -240 12 -440 9 -443 -9 -10 -48 -8 -94 5 l-43 12 0 1769 0
1769 -46 -14 c-25 -7 -48 -16 -51 -18 -2 -3 0 -609 6 -1348 6 -739 9 -1344 8
-1345 -5 -6 -98 112 -112 142 -13 29 -15 180 -15 1267 0 679 -3 1242 -6 1251
-4 12 -19 16 -54 16 -41 0 -49 -3 -54 -22 -11 -43 -6 -444 11 -877 16 -418 16
-443 -2 -668 -17 -209 -17 -253 -6 -426 13 -195 10 -267 -13 -286 -24 -20 -62
24 -91 104 l-28 75 9 753 c10 835 8 1060 -8 1317 -6 96 -13 256 -15 355 -2 98
-8 184 -12 190 -5 5 -5 59 0 120 15 207 29 760 22 850 l-8 90 -55 0 -55 0 -8
-105 c-5 -61 -4 -314 2 -600 6 -309 7 -610 2 -800 -10 -359 -8 -1630 4 -1842
5 -92 4 -148 -1 -148 -17 0 -90 123 -102 170 -9 31 -14 263 -17 760 -3 393 -9
922 -14 1175 -6 253 -10 674 -11 936 0 468 0 477 21 503 11 14 35 34 52 42 34
18 150 42 209 43 l36 1 9 -87z m-7075 -472 c57 -21 126 -49 153 -61 28 -12
334 -116 680 -231 347 -115 637 -212 645 -216 8 -3 19 -5 24 -4 16 4 66 -10
66 -18 0 -18 -203 -22 -869 -15 l-704 7 -23 51 c-50 109 -144 451 -144 522 0
21 3 22 34 13 19 -5 81 -27 138 -48z m-392 -13 c0 -60 -130 -487 -154 -507
-32 -26 -126 -32 -433 -25 -301 7 -312 8 -302 26 27 50 221 173 469 298 195
98 285 148 347 194 61 46 73 48 73 14z m6179 -280 c0 -192 -3 -239 -12 -225
-7 11 -43 66 -81 124 -112 172 -104 222 54 320 19 12 36 23 38 23 1 0 2 -109
1 -242z m-6039 117 c0 -11 18 -74 40 -139 22 -65 39 -121 37 -122 -2 -2 -50
-5 -108 -6 -75 -2 -111 1 -129 11 l-24 14 22 8 c14 5 22 17 22 31 0 13 11 57
24 98 14 41 30 94 35 116 6 23 21 54 33 69 l21 28 14 -44 c7 -24 13 -53 13
-64z m-1060 -481 c11 -13 10 -23 -8 -59 -23 -47 -56 -62 -112 -50 -37 8 -50
46 -29 84 12 22 24 27 69 32 30 3 58 6 61 7 4 1 12 -5 19 -14z m530 7 c0 -19
-30 -78 -52 -101 -22 -25 -111 -90 -122 -90 -8 0 -176 172 -176 180 0 4 3 10
7 13 10 10 343 8 343 -2z m596 -10 c22 -10 55 -36 73 -57 31 -37 32 -43 29
-106 -3 -55 -9 -75 -34 -110 -55 -79 -140 -107 -221 -73 -66 28 -113 87 -134
169 -18 73 19 153 85 182 46 20 153 17 202 -5z m389 -3 c29 -13 30 -19 9 -61
-21 -41 -54 -77 -70 -77 -17 0 -58 56 -73 99 -16 50 0 65 61 57 27 -4 60 -12
73 -18z m515 3 c0 -25 -84 -135 -131 -173 -19 -16 -42 -26 -50 -23 -16 6 -120
146 -132 177 -4 11 -5 24 -1 29 3 5 75 9 160 9 146 0 154 -1 154 -19z m570 13
c0 -17 -73 -114 -109 -147 -56 -51 -94 -50 -143 1 -37 38 -88 120 -88 140 0 9
48 12 170 12 94 0 170 -3 170 -6z m570 0 c0 -13 -103 -145 -127 -164 -40 -32
-71 -26 -115 22 -41 45 -98 126 -98 140 0 4 77 8 170 8 94 0 170 -3 170 -6z
m-2487 -71 c-17 -195 -18 -197 -137 -202 -47 -1 -86 1 -86 6 0 5 12 22 28 39
150 165 186 204 192 204 4 0 6 -21 3 -47z m1527 -30 c67 -82 120 -154 120
-165 0 -4 -83 -8 -185 -8 -102 0 -185 3 -185 6 0 8 119 174 149 207 14 15 30
27 35 27 6 0 36 -30 66 -67z m-2109 37 c83 -43 180 -158 165 -197 -6 -14 -23
-15 -159 -10 -84 3 -160 9 -170 12 -38 15 -3 100 70 171 26 24 48 44 50 44 2
0 22 -9 44 -20z m1676 -183 c-5 -17 -48 -25 -142 -25 -76 -1 -160 9 -171 21
-8 8 12 43 75 129 l56 78 93 -95 c52 -53 92 -101 89 -108z m1493 131 c-1 -120
-55 -184 -134 -158 -39 13 -47 25 -35 58 9 24 145 162 160 162 5 0 9 -28 9
-62z m-505 31 c35 -24 138 -166 130 -179 -8 -13 -275 -11 -315 3 -27 9 -36 18
-38 40 -3 24 7 40 61 93 72 72 106 81 162 43z m-2983 -23 c29 -13 29 -35 1
-53 -24 -16 -57 -18 -310 -18 l-283 0 0 32 c0 20 7 36 18 43 19 12 546 8 574
-4z m1358 -531 c17 -9 30 -18 30 -22 0 -3 -16 -26 -37 -51 -76 -93 -153 -90
-204 10 -24 47 -24 48 9 49 15 0 43 7 62 14 47 18 105 18 140 0z m50 -205 c0
-60 -4 -110 -9 -110 -14 0 -60 59 -67 86 -3 13 -3 35 0 48 7 27 53 86 67 86 5
0 9 -49 9 -110z m-271 74 c40 -51 21 -157 -32 -181 l-25 -12 -7 85 c-11 124
16 169 64 108z m6171 -282 c0 -202 -2 -233 -16 -239 -21 -8 -51 8 -106 57 -27
23 -48 39 -48 35 0 -11 -99 47 -104 62 -6 14 47 53 72 53 6 0 12 7 12 16 0 8
5 12 11 8 7 -4 9 0 5 14 -4 12 -2 24 6 29 7 4 20 24 29 43 10 19 40 68 69 109
39 54 55 70 61 60 5 -8 9 -119 9 -247z m-6011 109 c21 -21 44 -62 55 -98 l7
-23 -125 0 c-69 0 -126 2 -126 5 0 16 36 74 63 103 37 39 94 45 126 13z m-9
-196 c96 -8 107 -14 86 -46 -27 -42 -147 -126 -164 -115 -12 7 -78 117 -86
143 -6 18 -2 22 21 26 15 2 37 2 48 1 11 -2 54 -6 95 -9z m3340 -114 c25 -47
8 -105 -66 -228 -25 -40 -54 -93 -64 -116 -29 -63 -25 -167 7 -167 17 0 83
-49 83 -61 0 -20 -48 -7 -74 20 -19 19 -43 32 -70 36 -53 9 -86 30 -86 56 0
11 15 48 34 82 19 34 40 82 46 107 11 42 75 169 127 253 26 41 47 47 63 18z
m-3215 -73 c4 -40 5 -97 3 -127 l-3 -54 -48 63 c-27 34 -51 68 -54 75 -5 14
72 115 88 115 4 0 10 -33 14 -72z m-293 35 c59 -64 59 -99 -3 -159 l-39 -38 0
112 c0 62 4 112 8 112 5 0 20 -12 34 -27z m4262 -44 c-2 -4 1 -9 8 -11 8 -3 9
-6 1 -11 -6 -4 -18 1 -26 11 -15 16 -15 18 3 18 10 0 17 -3 14 -7z m-974 -73
c0 -8 -6 -16 -14 -19 -8 -3 -20 -23 -26 -44 -19 -63 -109 -114 -346 -196 -122
-43 -192 -77 -236 -116 -34 -29 -34 -29 -58 -10 -14 10 -28 19 -32 19 -13 0
-9 -84 6 -133 14 -46 14 -47 -10 -53 -70 -18 -176 -215 -188 -353 -2 -24 -9
-47 -16 -51 -9 -6 -8 -10 6 -18 17 -9 17 -15 7 -41 -10 -28 -9 -32 9 -42 11
-6 17 -13 14 -16 -3 -3 -12 0 -20 6 -10 8 -16 9 -21 1 -3 -6 -12 -7 -18 -4 -7
4 -9 3 -5 -1 11 -12 60 -16 73 -6 8 7 169 -35 235 -61 8 -4 29 -11 45 -17 17
-6 20 -9 8 -7 -13 2 -21 -1 -20 -8 2 -12 -20 -12 -107 0 -55 8 -91 34 -49 34
17 1 17 1 -1 15 -11 8 -25 15 -30 14 -6 0 -6 -3 1 -5 14 -6 6 -34 -10 -34 -21
0 -47 -34 -46 -59 1 -24 2 -24 11 7 9 25 16 32 37 31 25 0 26 0 4 -9 -28 -11
-29 -34 -4 -84 11 -21 17 -44 15 -51 -3 -7 -1 -16 5 -20 7 -3 8 0 5 9 -5 13 3
16 47 16 58 0 158 -38 259 -99 70 -41 131 -86 105 -77 -11 5 -51 16 -90 27
-38 10 -99 28 -135 40 -49 16 -103 23 -218 28 -84 3 -156 3 -160 -1 -4 -4 -29
-9 -57 -12 -27 -2 -74 -11 -102 -19 -29 -9 -53 -13 -53 -11 0 2 -19 -8 -42
-23 -40 -26 -90 -74 -84 -81 2 -1 30 5 62 13 96 25 238 35 347 24 159 -16 256
-49 431 -147 58 -32 74 -58 30 -49 -16 4 -65 13 -109 21 -45 8 -96 23 -115 34
-27 15 -72 22 -192 32 -177 14 -242 10 -360 -25 -45 -14 -96 -25 -113 -25 -18
0 -59 -13 -91 -30 -66 -34 -92 -37 -101 -14 -4 10 17 38 63 84 72 73 87 95
170 260 49 98 194 422 194 434 0 3 38 92 85 198 121 273 226 458 261 458 28 0
136 41 292 111 86 39 173 77 192 84 19 8 71 30 115 49 84 37 145 47 145 22z
m635 -66 c55 -24 117 -53 340 -159 83 -39 162 -71 177 -71 14 0 31 -7 38 -15
11 -13 3 -24 -50 -72 -34 -31 -94 -97 -132 -147 -102 -132 -115 -146 -130
-141 -7 3 -26 26 -42 51 -16 25 -37 51 -48 57 -39 24 -162 249 -202 369 -14
40 -30 87 -37 104 -16 40 -6 69 18 56 10 -5 41 -20 68 -32z m1561 26 c6 -16
-19 -144 -42 -213 -29 -88 -189 -337 -223 -348 -11 -3 -24 -19 -31 -36 -7 -16
-17 -32 -21 -35 -12 -7 -142 124 -200 200 -95 126 -118 160 -113 167 2 4 18
11 35 14 17 4 88 35 157 69 212 105 408 195 425 196 4 0 10 -6 13 -14z m-5320
-25 c37 -17 84 -62 84 -82 0 -18 -44 -30 -118 -31 -122 -1 -139 10 -108 71 14
25 66 61 91 61 6 0 28 -9 51 -19z m5505 -137 c-6 -38 -17 -150 -26 -249 -9
-99 -25 -254 -36 -345 -12 -91 -22 -213 -22 -272 -1 -64 -6 -106 -12 -105 -5
1 -14 -33 -19 -77 -8 -64 -7 -80 5 -86 50 -29 50 -27 4 -144 -23 -59 -48 -112
-55 -116 -7 -4 -10 -12 -6 -18 3 -6 -12 -33 -35 -62 -31 -40 -47 -73 -65 -142
-27 -102 -36 -122 -72 -160 -25 -28 -54 -40 -35 -15 6 6 13 39 17 72 9 78 39
213 91 410 69 259 114 503 135 725 12 131 34 278 65 440 14 69 26 143 28 165
2 22 8 48 12 58 7 16 10 17 22 5 11 -12 12 -28 4 -84z m3024 13 c7 -25 -7
-339 -29 -669 -12 -168 -13 -272 -6 -460 25 -662 31 -904 26 -1028 -12 -269
-19 -306 -49 -259 -40 61 -42 123 -42 1231 l0 1068 -60 0 -60 0 -1 -272 c0
-150 -4 -532 -9 -848 -6 -454 -5 -620 6 -790 8 -118 14 -255 14 -305 0 -100
-3 -103 -70 -91 -57 11 -60 35 -59 411 0 182 1 364 3 405 1 41 1 377 -1 745
-4 736 -4 741 -59 752 -16 3 -31 9 -34 13 -8 14 72 44 215 81 177 45 207 48
215 16z m-8415 -52 c0 -20 -36 -68 -84 -114 -47 -44 -59 -51 -72 -41 -12 11
-82 106 -107 148 -6 9 21 12 127 12 75 0 136 -2 136 -5z m-224 -212 c18 -42 4
-78 -56 -142 l-40 -44 0 149 0 148 41 -39 c23 -22 48 -55 55 -72z m254 -20 c0
-73 -7 -113 -20 -113 -11 0 -67 91 -75 121 -9 35 16 59 61 59 l34 0 0 -67z
m3260 32 c20 -21 22 -30 14 -53 -7 -22 -38 -42 -179 -112 l-170 -85 1 -65 c0
-62 35 -179 69 -235 6 -11 15 -43 18 -72 3 -28 22 -87 41 -130 37 -82 136
-346 136 -363 0 -28 45 -122 71 -150 45 -47 83 -150 56 -150 -21 0 -46 33 -68
90 -11 29 -33 68 -49 89 -39 48 -137 256 -297 631 -67 156 -143 367 -143 396
0 22 11 30 88 66 48 22 104 46 124 54 38 13 212 90 238 104 22 13 24 12 50
-15z m1853 -22 c4 -3 3 -11 -2 -17 -4 -6 -22 -55 -40 -109 -83 -250 -278 -622
-380 -721 -75 -74 -63 -97 -150 314 -59 280 -57 252 -16 313 37 54 69 93 97
115 14 11 26 7 80 -27 35 -22 79 -59 97 -81 18 -22 37 -38 42 -34 6 3 23 24
39 46 16 22 43 48 59 57 43 23 141 118 141 136 0 15 21 21 33 8z m391 -4 c14
-7 23 -15 21 -19 -3 -5 2 -11 11 -14 8 -3 12 -2 9 4 -3 6 -3 10 0 10 9 0 169
-73 183 -84 8 -5 22 -10 33 -11 10 -1 27 -9 37 -18 10 -9 24 -17 30 -17 7 0
12 -4 12 -8 0 -14 -29 -10 -34 5 -3 7 -10 13 -16 13 -6 0 -8 -4 -5 -10 9 -14
-2 -12 -33 6 l-27 16 24 -21 c13 -12 30 -20 37 -17 16 6 29 -10 15 -18 -9 -6
-34 5 -78 34 -18 11 -20 17 -10 29 10 12 9 12 -8 1 -18 -11 -30 -8 -85 20
-115 58 -187 110 -150 110 5 0 20 -5 34 -11z m-1829 -51 c35 -27 60 -57 70
-81 9 -22 31 -48 55 -65 21 -15 39 -35 40 -44 0 -34 33 -17 118 62 52 47 96
80 108 80 28 0 108 -82 135 -137 16 -33 19 -53 14 -90 -9 -65 -38 -203 -75
-353 -52 -214 -55 -219 -109 -151 -92 115 -322 530 -401 720 -47 116 -41 125
45 59z m4865 -8 c0 -11 -6 -20 -12 -20 -9 0 -10 -2 -2 -8 8 -5 13 -198 18
-677 3 -370 2 -661 -3 -650 -5 12 -6 -50 -4 -145 3 -116 1 -161 -6 -150 -8 12
-11 8 -11 -17 0 -17 4 -33 9 -35 6 -2 6 -18 2 -38 -15 -66 -23 -6 -19 144 1
79 -1 139 -5 133 -5 -7 -7 316 -5 717 3 534 7 731 15 733 7 3 9 11 6 19 -3 8
0 14 6 14 6 0 11 -9 11 -20z m175 -50 c-6 -9 -9 -9 -16 1 -10 17 0 34 13 21 6
-6 7 -16 3 -22z m-8838 -14 c29 -24 89 -123 80 -132 -2 -3 -66 -3 -142 -2
l-137 3 42 63 c62 92 106 111 157 68z m8822 -18 c1 6 5 12 10 12 11 0 9 -263
-2 -300 -6 -21 -6 -22 2 -5 8 15 9 5 5 -35 -3 -30 -7 -60 -9 -67 -2 -7 0 -15
5 -18 14 -8 12 -102 -1 -111 -8 -4 -7 -9 2 -15 10 -6 6 -9 -12 -9 l-26 0 -7
143 c-5 107 5 393 15 437 0 3 5 -6 9 -20 4 -14 8 -19 9 -12z m138 -30 c-3 -8
-6 -5 -6 6 -1 11 2 17 5 13 3 -3 4 -12 1 -19z m-2963 -11 c0 -9 -1 -33 -2 -52
-1 -19 -5 -35 -9 -35 -5 0 -21 16 -36 35 -25 32 -27 37 -13 51 9 8 16 12 16 8
0 -5 5 -3 12 4 16 16 33 10 32 -11z m-1550 -140 c-28 -187 -39 -238 -66 -309
-31 -84 -32 38 -2 211 18 100 39 148 58 132 7 -6 12 -21 10 -34z m-4344 -20
c0 -22 -64 -109 -103 -141 -44 -35 -95 -40 -127 -11 -26 24 -74 121 -65 134 3
6 34 12 68 12 34 1 91 5 127 9 100 11 100 11 100 -3z m-237 -234 c14 -24 -1
-62 -46 -110 l-42 -46 -5 124 c-3 68 -3 128 -2 132 4 8 78 -71 95 -100z m237
-40 l-1 -118 -29 35 c-72 87 -76 132 -13 175 21 14 39 25 40 25 2 0 3 -53 3
-117z m4962 -25 c-7 -7 -12 -8 -12 -2 0 14 12 26 19 19 2 -3 -1 -11 -7 -17z
m-5122 -27 c0 -4 32 -40 71 -80 104 -106 94 -118 -104 -120 -107 -1 -108 -1
-101 21 14 44 105 188 119 188 8 0 15 -4 15 -9z m5079 -109 c-17 -36 -46 -81
-64 -101 -17 -20 -74 -92 -126 -161 -89 -118 -458 -511 -486 -518 -9 -3 -13 9
-13 40 0 41 4 47 48 80 69 54 245 228 347 343 87 99 165 198 165 210 0 13 93
151 124 183 29 32 31 32 34 12 2 -12 -11 -52 -29 -88z m-2454 51 c18 -14 18
-15 2 -9 -10 3 -30 6 -43 6 -13 0 -24 5 -24 10 0 16 43 11 65 -7z m3766 -45
c-17 -18 -31 -36 -31 -40 0 -5 -9 -8 -20 -8 -33 0 -23 33 18 56 54 32 67 28
33 -8z m376 -23 c58 -29 91 -61 77 -74 -5 -5 -91 -30 -191 -55 -145 -36 -209
-58 -323 -111 -78 -36 -145 -64 -148 -61 -12 13 54 89 90 103 22 9 46 29 59
49 11 19 27 34 34 34 8 0 51 18 95 39 44 22 104 47 133 55 28 9 61 23 71 31
27 21 44 19 103 -10z m-6749 -157 c150 4 160 -1 123 -62 -23 -37 -136 -146
-151 -146 -9 0 -63 69 -113 147 -32 50 -36 80 -9 67 9 -5 77 -8 150 -6z m9032
-388 c0 -342 -2 -389 -15 -384 -13 5 -15 57 -15 384 0 369 1 381 28 389 1 1 2
-174 2 -389z m-2116 286 c-3 -8 -20 -21 -37 -30 -28 -13 -176 -56 -193 -56 -3
0 4 -9 17 -19 23 -19 23 -20 4 -26 -55 -18 -75 -28 -75 -36 0 -5 -51 -9 -114
-9 -63 0 -137 -5 -165 -12 -40 -9 -53 -9 -66 2 -8 7 -15 16 -15 21 0 18 229
119 325 143 123 30 139 33 242 35 68 1 81 -2 77 -13z m-7040 -89 c26 -35 33
-115 13 -154 -54 -104 -95 -37 -80 133 6 73 7 74 27 61 11 -8 29 -26 40 -40z
m266 -35 c0 -27 3 -85 7 -128 6 -74 5 -78 -11 -65 -28 24 -76 127 -76 165 0
39 31 76 62 76 15 0 18 -8 18 -48z m1690 -61 c27 -51 -3 -160 -57 -212 -21
-20 -51 -43 -67 -50 -25 -12 -35 -29 -62 -104 -42 -115 -42 -120 -4 -100 39
20 48 19 52 -7 3 -21 4 -20 38 7 19 16 4 -4 -35 -43 -38 -40 -78 -75 -87 -78
-10 -3 -18 -14 -18 -24 0 -11 -5 -43 -11 -72 l-12 -52 -19 49 c-68 170 -32
390 85 529 24 28 51 62 60 76 9 13 17 21 17 17 0 -5 5 -5 11 -1 8 4 7 9 -2 15
-7 4 -11 10 -9 11 3 2 20 16 38 31 39 32 67 34 82 8z m-1797 -101 c58 -64 95
-125 84 -136 -4 -4 -65 -9 -137 -12 -144 -5 -155 0 -127 55 23 43 106 153 116
153 5 0 34 -27 64 -60z m6753 -14 c55 -13 129 -36 165 -50 136 -52 214 -88
232 -104 17 -15 77 -98 77 -107 0 -2 -17 5 -37 15 -21 10 -58 25 -83 33 -25 9
-73 28 -108 42 -102 42 -194 55 -401 55 -199 0 -302 -9 -446 -40 -313 -67
-765 -202 -1038 -311 -227 -91 -369 -165 -496 -261 -35 -26 -69 -48 -75 -48
-30 0 -86 23 -86 34 0 8 20 41 45 74 87 116 300 225 765 392 129 47 437 148
510 168 19 5 88 26 153 46 102 31 293 75 392 90 17 2 98 3 180 1 119 -3 171
-8 251 -29z m-3981 0 c189 -34 623 -176 917 -301 296 -127 510 -254 572 -342
16 -24 28 -45 25 -47 -2 -2 -85 34 -184 81 -99 47 -216 100 -260 118 -44 18
-139 58 -210 88 -276 115 -723 248 -955 282 -110 17 -288 19 -377 5 -75 -12
-362 -106 -457 -149 -38 -17 -71 -29 -73 -27 -2 2 34 39 80 82 129 121 259
188 422 220 90 18 376 12 500 -10z m1067 -118 c-2 -10 -7 -18 -9 -18 -3 0 -3
9 0 20 3 11 1 23 -4 26 -5 3 -9 13 -9 22 1 13 4 11 14 -7 7 -13 11 -32 8 -43z
m37 -67 c11 -21 11 -21 -8 -9 -26 16 -31 30 -24 59 l7 24 6 -26 c4 -14 13 -35
19 -48z m-3769 -32 c0 -20 -124 -179 -140 -179 -22 0 -140 139 -140 165 0 10
19 15 73 18 167 8 207 7 207 -4z m4468 -16 c5 -31 -52 -66 -93 -57 -34 7 -65
31 -65 50 0 23 33 34 95 31 54 -2 60 -4 63 -24z m-4680 -214 c11 -14 5 -26
-37 -79 -27 -34 -56 -71 -65 -83 -14 -20 -15 -8 -15 141 l-1 163 53 -63 c29
-35 58 -70 65 -79z m232 -8 c0 -99 -5 -116 -32 -106 -24 9 -68 87 -68 120 0
45 38 84 83 85 15 0 17 -11 17 -99z m-114 -106 c17 -13 46 -47 63 -74 l31 -51
-22 -11 c-30 -16 -258 -28 -258 -13 0 28 34 104 61 137 37 45 76 49 125 12z
m2197 -630 c6 -199 19 -285 58 -374 27 -65 60 -91 111 -91 84 0 152 56 183
151 16 47 17 80 12 286 l-6 233 33 0 c18 0 67 -3 109 -6 l77 -7 0 -297 0 -296
-29 -45 c-46 -74 -150 -178 -201 -202 -57 -28 -114 -32 -239 -17 -112 13 -137
26 -220 116 -102 112 -101 106 -101 454 l0 299 78 -6 c49 -3 86 -2 98 5 14 8
21 7 25 -1 4 -7 9 -97 12 -202z m1092 199 c49 -8 92 -18 95 -21 3 -2 5 -195 5
-428 l0 -424 -122 0 -123 -1 0 82 c0 46 -2 242 -5 437 -2 195 -2 358 1 363 8
12 48 10 149 -8z m3410 -56 c39 -40 102 -120 141 -178 71 -108 169 -218 182
-206 4 4 7 105 7 224 l0 217 101 3 102 3 6 -28 c3 -15 9 -154 12 -308 8 -323
0 -508 -23 -531 -11 -11 -36 -14 -98 -13 l-84 2 -54 76 c-29 42 -90 128 -135
191 -101 143 -148 197 -159 187 -4 -5 -9 -99 -11 -210 -1 -111 -4 -212 -7
-224 -5 -22 -9 -23 -115 -23 l-110 0 2 427 3 427 65 17 c36 9 74 18 85 18 12
1 47 -27 90 -71z m-5300 48 c56 -12 145 -53 173 -79 73 -68 70 -149 -9 -287
l-38 -65 47 -22 c56 -26 81 -64 89 -133 8 -65 -14 -121 -69 -182 -34 -37 -58
-51 -118 -72 -74 -26 -77 -27 -335 -24 l-260 3 -8 50 c-4 28 -3 202 4 388 6
186 8 358 5 382 -6 37 -4 44 11 47 38 7 470 2 508 -6z m2600 -307 c-4 -174 -4
-325 -1 -337 11 -32 58 -36 170 -12 134 27 187 27 223 -4 27 -24 28 -27 26
-116 -1 -50 -3 -94 -6 -96 -3 -3 -34 0 -68 6 -45 8 -142 10 -326 5 -298 -9
-283 -13 -265 72 21 96 35 503 23 644 -7 72 -10 134 -7 137 7 7 117 17 185 17
l53 0 -7 -316z m1052 310 c241 -31 384 -111 449 -251 27 -58 29 -72 28 -178 0
-139 -12 -171 -104 -281 -34 -41 -69 -83 -76 -94 -7 -11 -33 -26 -56 -32 -72
-19 -255 -33 -426 -33 l-162 0 -6 27 c-4 15 1 154 11 308 11 154 19 339 19
411 l1 132 117 1 c64 1 156 -3 205 -10z m1024 -16 c6 -17 9 -173 7 -434 l-3
-407 -77 -7 c-42 -4 -85 -4 -96 -1 -11 4 -28 26 -38 49 -22 53 -31 311 -15
467 6 58 11 159 10 224 0 89 3 121 13 127 7 5 52 9 101 9 86 0 88 0 98 -27z
m2143 -3 c102 -39 133 -89 99 -157 -30 -62 -58 -69 -171 -42 -123 28 -177 28
-237 -2 -84 -42 -136 -134 -120 -210 28 -129 139 -236 256 -246 58 -6 59 -5
99 34 64 65 46 107 -43 102 -70 -3 -67 -7 -67 87 l0 87 158 -6 c86 -2 165 -8
175 -12 17 -7 18 -16 13 -81 -3 -40 -1 -98 4 -128 16 -97 -3 -129 -127 -222
l-73 -54 -117 0 c-223 0 -268 16 -394 140 -91 89 -113 145 -113 295 -1 99 2
118 28 182 49 123 151 205 306 248 82 22 247 15 324 -15z m-8284 -387 c623 -4
603 -2 593 -57 -5 -22 -13 -26 -77 -37 -107 -20 -1088 -17 -1143 2 -26 9 -29
30 -12 78 10 29 15 32 38 25 14 -4 285 -9 601 -11z m9946 -18 c13 -8 24 -23
24 -33 0 -17 -17 -23 -145 -48 -49 -9 -823 -17 -938 -9 l-107 7 0 49 0 49 438
3 c583 5 698 2 728 -18z m-9450 -685 c252 -19 402 -75 557 -207 202 -171 307
-404 307 -680 -1 -262 -98 -491 -284 -665 -58 -55 -197 -147 -241 -161 -11 -3
-51 -17 -88 -31 -108 -41 -219 -56 -421 -56 -179 0 -248 -8 -270 -30 -7 -7
-12 -96 -13 -277 -3 -255 -2 -268 17 -285 11 -10 20 -22 20 -26 0 -9 -733 -3
-741 6 -4 4 12 54 34 112 30 79 42 130 50 205 6 59 11 422 11 890 1 910 -5
1027 -55 1121 -26 50 -28 59 -14 67 38 21 906 35 1131 17z m2083 2 l85 -7 43
-124 c23 -68 63 -169 87 -225 25 -56 56 -132 69 -171 14 -38 39 -108 57 -155
34 -89 111 -299 185 -505 24 -66 69 -190 100 -275 72 -196 91 -255 100 -304 3
-21 12 -52 19 -70 8 -17 24 -67 36 -111 12 -44 62 -162 111 -264 49 -101 89
-189 89 -196 0 -7 -8 -16 -17 -19 -9 -4 -160 -4 -335 0 -287 6 -321 9 -349 26
-26 16 -30 24 -26 46 8 39 -9 105 -53 202 -21 47 -41 93 -44 102 -8 27 -78 31
-430 25 -349 -5 -352 -6 -340 -53 3 -12 -6 -48 -19 -80 -14 -32 -39 -105 -56
-161 l-31 -101 -41 -7 c-43 -7 -631 3 -661 11 -32 9 -44 -27 228 724 25 69 66
181 91 250 89 249 132 367 172 475 22 61 51 142 65 180 13 39 52 147 86 240
34 94 81 224 105 290 24 66 53 147 65 180 12 33 26 66 32 73 11 13 416 16 577
4z m1353 -7 c231 0 248 -2 269 -20 23 -21 205 -293 304 -455 114 -185 332
-547 409 -678 43 -73 79 -132 81 -130 1 2 -2 44 -8 93 -7 61 -6 213 2 475 8
279 8 429 1 544 -6 87 -9 160 -7 163 10 9 558 6 568 -4 20 -20 31 -298 24
-603 -10 -440 -7 -807 10 -1285 8 -231 15 -441 15 -467 l0 -48 -261 0 -261 0
-61 53 c-70 59 -106 98 -107 111 0 18 -78 141 -114 181 -69 76 -114 140 -126
178 -8 27 -20 42 -39 48 -19 7 -36 29 -64 89 -21 43 -53 98 -71 122 -32 43
-106 165 -106 175 0 3 -13 22 -28 42 -25 30 -72 126 -121 245 -20 48 -25 21
-12 -66 8 -57 11 -220 9 -518 -2 -239 1 -485 5 -546 l9 -112 -154 -3 c-284 -7
-457 -4 -469 8 -9 9 -7 91 6 324 12 222 15 349 9 438 -4 70 -6 209 -4 311 7
351 5 1225 -4 1289 l-8 64 28 -9 c16 -5 140 -9 276 -9z m3197 -20 c379 -94
689 -411 786 -802 21 -88 26 -139 34 -350 5 -137 12 -258 16 -270 6 -17 3 -23
-9 -23 -9 0 -18 -11 -21 -27 -45 -218 -161 -429 -318 -580 -156 -149 -310
-237 -514 -292 -162 -44 -226 -51 -582 -62 -327 -11 -598 -6 -615 11 -5 5 -2
35 8 74 15 60 15 135 5 888 -11 795 -8 1363 6 1421 l7 27 277 1 c152 1 319 5
371 9 52 4 172 7 265 6 149 -2 184 -6 284 -31z m2213 13 c9 -7 30 -58 48 -113
35 -105 209 -600 287 -815 105 -291 228 -633 260 -730 14 -41 40 -118 58 -170
53 -155 143 -442 150 -479 4 -19 19 -45 33 -58 22 -20 24 -26 12 -33 -9 -6
-169 -10 -368 -10 l-353 0 7 65 c6 61 4 72 -42 191 -38 99 -54 128 -72 135
-31 12 -684 12 -714 0 -20 -7 -30 -27 -51 -98 -42 -138 -65 -235 -59 -255 4
-15 -2 -18 -39 -19 -84 -2 -185 -8 -362 -19 -173 -12 -347 -7 -347 10 0 5 6
15 13 22 19 19 130 240 169 338 107 263 106 259 143 425 10 44 26 92 36 106
19 27 48 104 124 334 24 72 69 202 101 290 31 88 96 275 144 415 118 346 174
463 223 473 12 2 148 5 303 6 211 1 284 -2 296 -11z m-5259 -2609 c37 -6 74
-17 81 -24 26 -27 31 -553 5 -622 -8 -21 -15 -23 -78 -23 l-69 0 -3 158 c-3
134 -7 162 -23 187 -18 27 -19 28 -33 9 -8 -10 -35 -58 -60 -107 -25 -48 -54
-92 -64 -98 -38 -20 -118 49 -170 146 -13 25 -27 45 -31 45 -5 0 -8 -77 -8
-171 l0 -171 -80 3 c-43 2 -84 9 -90 15 -8 8 -9 102 -4 322 l7 312 33 0 c18 0
45 5 60 11 51 19 60 7 217 -258 10 -18 25 -33 32 -33 32 0 175 241 175 295 0
20 4 25 18 21 9 -3 48 -10 85 -17z m-1168 -21 c100 -51 178 -161 204 -290 28
-134 -38 -267 -164 -327 -91 -44 -141 -48 -249 -21 -131 32 -176 69 -233 184
-42 86 -44 95 -39 156 6 80 28 141 54 153 10 5 26 24 35 43 19 40 88 92 155
116 68 25 172 19 237 -14z m-913 -4 c35 -14 83 -43 108 -65 l44 -38 -33 -35
c-47 -49 -79 -53 -145 -22 -107 51 -198 27 -243 -64 -44 -86 -21 -201 49 -246
59 -38 102 -38 191 2 53 24 86 34 103 30 25 -7 54 -51 54 -84 0 -25 -43 -64
-107 -97 -46 -24 -64 -27 -147 -27 -88 0 -99 3 -156 33 -111 59 -181 166 -188
289 -9 157 102 294 272 335 81 20 130 17 198 -11z m3780 -105 c82 -178 187
-441 194 -488 6 -36 4 -41 -18 -46 -13 -3 -49 -5 -79 -3 -54 3 -54 3 -79 53
-30 59 -63 73 -176 74 -91 1 -121 -19 -126 -82 l-3 -42 -83 -3 c-71 -2 -83 0
-89 15 -8 21 26 115 97 273 76 167 118 279 126 332 l7 48 86 -4 86 -4 57 -123z
m666 114 c11 -10 62 -79 112 -153 171 -251 198 -260 178 -54 -17 171 -2 209
82 207 29 -1 56 -7 60 -13 9 -15 20 -258 20 -461 0 -183 -3 -193 -60 -191 -63
2 -119 52 -247 222 -88 116 -129 158 -143 144 -8 -8 -7 -60 1 -168 6 -86 8
-163 5 -171 -4 -11 -23 -15 -75 -15 -38 0 -72 4 -75 8 -3 5 -6 152 -7 328 l-1
319 23 6 c47 14 106 9 127 -8z m907 -26 c22 -23 54 -65 69 -92 45 -76 77 -115
95 -115 18 0 55 52 111 159 l35 66 87 3 88 3 -12 -28 c-7 -15 -50 -89 -96
-163 -144 -230 -142 -226 -142 -323 0 -47 -4 -97 -10 -111 -9 -24 -14 -26 -74
-26 -36 0 -67 4 -71 9 -3 5 -1 51 5 101 7 64 7 103 0 131 -6 22 -55 106 -109
187 -95 141 -136 211 -129 216 18 15 49 25 77 26 28 0 43 -8 76 -43z m-2380 1
c143 -90 169 -287 48 -367 -49 -33 -155 -61 -230 -61 -94 0 -95 -2 -87 -90 6
-73 5 -78 -17 -94 -15 -10 -44 -16 -84 -16 l-60 0 1 308 c1 169 2 315 3 324 1
20 67 26 261 23 115 -1 128 -4 165 -27z m-5295 -19 c0 -7 -10 -9 -24 -5 -14 3
-28 1 -32 -5 -5 -9 9 -10 52 -5 39 4 52 3 39 -3 -18 -9 -18 -10 -2 -10 11 -1
21 8 24 19 4 17 11 19 37 15 17 -3 47 -5 66 -5 174 5 357 4 325 -1 l-40 -6 35
-2 c19 -1 44 -3 55 -5 11 -2 14 -1 8 1 -7 3 -13 8 -13 12 0 8 281 5 318 -4 12
-3 22 -1 22 5 0 6 5 8 12 4 15 -10 78 -11 78 -1 0 4 111 6 248 5 239 -3 247
-4 247 -23 0 -12 -12 -26 -30 -35 -26 -13 -101 -14 -570 -10 -297 3 -680 5
-852 5 -254 0 -309 2 -301 13 9 11 13 11 19 0 6 -8 9 -9 9 -2 0 7 11 15 24 18
13 3 32 8 43 12 10 3 7 -1 -7 -10 -30 -18 -21 -21 15 -4 14 6 25 15 25 20 0
14 37 9 51 -8 11 -13 9 -15 -17 -9 -26 5 -27 5 -6 -5 16 -6 30 -7 40 0 10 5
12 10 5 10 -25 0 -13 19 15 23 54 8 82 7 82 -4z m8990 2 c0 -11 430 -9 448 2
6 5 12 4 12 0 0 -10 134 -8 150 2 5 3 12 0 16 -6 4 -8 9 -7 15 2 6 9 9 10 9 2
0 -8 9 -9 28 -5 15 4 63 6 107 4 402 -14 451 -21 481 -60 16 -21 18 -52 3 -52
-5 0 -7 -4 -4 -10 8 -14 -30 -13 -163 5 -63 8 -119 12 -124 9 -6 -4 -8 -3 -5
3 4 6 -13 9 -45 7 -37 -2 -47 0 -37 8 10 7 6 8 -16 5 -16 -3 -79 1 -140 8 -60
8 -156 16 -212 17 -57 2 -103 7 -103 11 0 5 -8 6 -17 3 -10 -3 -54 -8 -98 -10
-73 -4 -78 -4 -50 9 l30 13 -27 7 c-15 4 -33 5 -40 2 -7 -3 -2 -6 12 -7 23 -1
22 -3 -10 -15 -26 -10 -111 -14 -347 -14 -171 -1 -314 3 -317 8 -12 19 23 45
70 52 75 10 374 10 374 0z m-9006 -411 c-6 -6 -37 -11 -69 -12 -34 -1 -50 -4
-39 -8 19 -7 86 -3 114 7 25 9 443 2 461 -8 10 -5 137 -4 309 3 247 9 293 9
301 -3 6 -10 9 -10 9 -1 0 9 44 12 185 12 l185 0 0 -23 c0 -21 -7 -25 -62 -34
-69 -11 -467 -11 -485 0 -6 4 -17 0 -24 -9 -10 -13 -30 -15 -98 -13 -48 2 -90
5 -94 7 -26 12 -237 20 -237 8 0 -4 -150 -5 -332 -1 -484 9 -438 5 -438 38 0
27 0 27 71 27 53 0 69 -3 64 -12 -4 -7 0 -5 7 4 13 16 47 22 143 26 27 1 36
-1 29 -8z m10364 -10 c33 -31 25 -55 -24 -68 -49 -13 -1774 -5 -1790 9 -16 13
-19 45 -5 54 6 3 315 6 688 6 373 1 721 4 773 8 52 4 149 8 216 9 108 2 122 0
142 -18z"/>
<path d="M6825 9761 c-53 -24 -131 -111 -166 -186 -32 -67 -35 -91 -15 -138
15 -38 161 -223 203 -258 37 -31 64 -76 98 -167 16 -40 44 -90 62 -112 30 -35
40 -40 78 -40 62 0 110 24 172 86 89 89 129 206 102 301 -10 38 -28 62 -80
113 -41 40 -100 115 -152 195 -91 141 -132 186 -189 209 -47 20 -64 20 -113
-3z m72 -232 l28 -11 -32 -13 c-17 -7 -34 -24 -38 -36 l-8 -24 -8 23 c-9 24
-2 52 15 64 14 10 10 10 43 -3z m103 -110 c0 -49 -63 -75 -104 -44 -22 17 -22
17 19 30 19 6 36 22 45 42 13 29 16 30 28 16 6 -9 12 -29 12 -44z"/>
<path d="M5834 9751 c-16 -10 -50 -38 -75 -62 -40 -40 -64 -77 -178 -269 -20
-34 -55 -72 -92 -100 -75 -56 -88 -90 -70 -182 31 -159 150 -268 291 -268 46
0 100 18 100 33 1 36 59 144 150 277 131 195 163 263 168 355 4 66 2 73 -30
120 -48 72 -116 115 -182 115 -32 0 -62 -7 -82 -19z m57 -221 c21 -12 26 -32
7 -29 -46 6 -75 -23 -63 -62 14 -42 81 -44 91 -3 8 33 24 30 24 -4 0 -58 -75
-90 -123 -52 -23 18 -27 29 -27 71 0 72 39 106 91 79z"/>
<path d="M6046 8737 c-19 -19 -26 -36 -26 -66 0 -63 39 -99 169 -155 111 -49
155 -82 166 -126 9 -38 -25 -74 -87 -95 -66 -23 -232 -31 -294 -16 -26 7 -49
10 -51 7 -10 -9 74 -55 140 -76 55 -18 82 -21 135 -16 189 17 238 18 370 6
222 -21 305 2 404 108 45 48 65 87 56 113 -2 6 -21 -16 -43 -49 -49 -78 -83
-93 -222 -100 -166 -8 -303 39 -303 103 0 41 40 73 178 144 76 38 145 78 155
89 13 15 17 33 15 68 -3 43 -7 51 -33 63 -16 8 -58 17 -93 19 -54 4 -78 -1
-168 -33 l-105 -37 -97 32 c-56 19 -127 34 -169 37 -67 5 -73 4 -97 -20z"/>
<path d="M7637 8695 c-4 -8 -2 -17 3 -20 6 -4 10 3 10 14 0 25 -6 27 -13 6z"/>
<path d="M5830 8361 c0 -6 4 -12 8 -15 5 -3 9 1 9 9 0 8 -4 15 -9 15 -4 0 -8
-4 -8 -9z"/>
<path d="M5521 8328 c-1 -21 15 -32 25 -17 4 7 3 9 -4 5 -6 -3 -13 2 -15 11
-4 16 -5 16 -6 1z"/>
<path d="M5880 8321 c0 -6 4 -13 10 -16 6 -3 7 1 4 9 -7 18 -14 21 -14 7z"/>
<path d="M5688 8305 c-8 -8 3 -65 13 -65 5 0 6 15 2 33 -7 37 -8 39 -15 32z"/>
<path d="M5855 8199 c-4 -6 -5 -11 -4 -13 2 -1 22 -15 44 -31 22 -17 44 -29
49 -27 4 1 16 -3 25 -9 9 -6 3 0 -12 15 -16 14 -32 24 -36 22 -3 -2 -18 5 -31
16 -16 13 -19 18 -7 14 23 -7 22 1 -2 14 -14 7 -22 7 -26 -1z"/>
<path d="M7060 8180 c0 -5 5 -10 10 -10 6 0 10 5 10 10 0 6 -4 10 -10 10 -5 0
-10 -4 -10 -10z"/>
<path d="M6130 8020 c8 -5 22 -9 30 -9 10 0 8 3 -5 9 -27 12 -43 12 -25 0z"/>
<path d="M6095 8010 c3 -5 8 -10 11 -10 2 0 4 5 4 10 0 6 -5 10 -11 10 -5 0
-7 -4 -4 -10z"/>
<path d="M6598 8013 c7 -3 16 -2 19 1 4 3 -2 6 -13 5 -11 0 -14 -3 -6 -6z"/>
<path d="M6643 8013 c9 -2 23 -2 30 0 6 3 -1 5 -18 5 -16 0 -22 -2 -12 -5z"/>
<path d="M6577 7999 c7 -7 15 -10 18 -7 3 3 -2 9 -12 12 -14 6 -15 5 -6 -5z"/>
<path d="M6120 7990 c0 -5 5 -10 11 -10 5 0 7 5 4 10 -3 6 -8 10 -11 10 -2 0
-4 -4 -4 -10z"/>
<path d="M6508 7993 c7 -3 16 -2 19 1 4 3 -2 6 -13 5 -11 0 -14 -3 -6 -6z"/>
<path d="M6415 7980 c-8 -13 5 -13 25 0 13 8 13 10 -2 10 -9 0 -20 -4 -23 -10z"/>
<path d="M6625 7980 c27 -12 43 -12 25 0 -8 5 -22 9 -30 9 -10 0 -8 -3 5 -9z"/>
<path d="M6338 7973 c12 -2 32 -2 45 0 12 2 2 4 -23 4 -25 0 -35 -2 -22 -4z"/>
<path d="M6574 7955 c-17 -13 -16 -14 14 -4 33 11 41 19 19 19 -7 0 -22 -7
-33 -15z"/>
<path d="M6338 7953 c12 -2 32 -2 45 0 12 2 2 4 -23 4 -25 0 -35 -2 -22 -4z"/>
<path d="M6448 7953 c7 -3 16 -2 19 1 4 3 -2 6 -13 5 -11 0 -14 -3 -6 -6z"/>
<path d="M6275 7930 c3 -5 8 -10 11 -10 2 0 4 5 4 10 0 6 -5 10 -11 10 -5 0
-7 -4 -4 -10z"/>
<path d="M6311 7924 c0 -11 3 -14 6 -6 3 7 2 16 -1 19 -3 4 -6 -2 -5 -13z"/>
<path d="M6448 7933 c6 -2 18 -2 25 0 6 3 1 5 -13 5 -14 0 -19 -2 -12 -5z"/>
<path d="M6340 7920 c-8 -5 -10 -10 -5 -10 6 0 17 5 25 10 8 5 11 10 5 10 -5
0 -17 -5 -25 -10z"/>
<path d="M6418 7913 c7 -3 16 -2 19 1 4 3 -2 6 -13 5 -11 0 -14 -3 -6 -6z"/>
<path d="M3668 9533 c7 -3 16 -2 19 1 4 3 -2 6 -13 5 -11 0 -14 -3 -6 -6z"/>
<path d="M7750 8318 c0 -7 4 -19 9 -26 7 -11 9 -11 13 0 3 7 -1 19 -8 26 -11
10 -14 10 -14 0z"/>
<path d="M4095 7070 c-3 -5 -1 -10 4 -10 6 0 11 5 11 10 0 6 -2 10 -4 10 -3 0
-8 -4 -11 -10z"/>
<path d="M4086 7033 c10 -18 22 -33 26 -33 12 0 10 5 -18 36 l-26 29 18 -32z"/>
<path d="M4058 6988 c-2 -24 -2 -52 1 -63 4 -18 5 -18 11 5 4 14 12 24 18 23
19 -4 14 32 -7 56 l-19 22 -4 -43z m20 -24 c-14 -14 -15 -14 -10 11 3 19 8 23
15 16 8 -8 7 -16 -5 -27z"/>
<path d="M4040 6906 c0 -8 4 -17 9 -20 5 -4 7 3 4 14 -6 23 -13 26 -13 6z"/>
<path d="M4088 6903 c6 -2 18 -2 25 0 6 3 1 5 -13 5 -14 0 -19 -2 -12 -5z"/>
<path d="M4153 6895 c0 -7 6 -11 14 -8 7 3 13 6 13 8 0 2 -6 5 -13 8 -8 3 -14
-1 -14 -8z"/>
<path d="M4120 6890 c-9 -6 -10 -10 -3 -10 6 0 15 5 18 10 8 12 4 12 -15 0z"/>
<path d="M4013 6864 c-6 -13 -7 -24 -2 -24 12 0 31 38 21 44 -4 2 -12 -7 -19
-20z"/>
<path d="M4170 6865 c-6 -8 -10 -20 -7 -27 4 -8 6 -7 6 4 1 9 9 22 19 27 9 6
12 11 6 11 -6 0 -17 -7 -24 -15z"/>
<path d="M4072 6835 c0 -16 2 -22 5 -12 2 9 2 23 0 30 -3 6 -5 -1 -5 -18z"/>
<path d="M4350 6850 c14 -4 32 -8 40 -9 13 -1 13 0 0 9 -8 5 -26 9 -40 9 l-25
-1 25 -8z"/>
<path d="M4040 6825 c0 -14 4 -25 9 -25 4 0 6 11 3 25 -2 14 -6 25 -8 25 -2 0
-4 -11 -4 -25z"/>
<path d="M3950 6772 c0 -12 39 -60 40 -49 0 5 -9 20 -20 34 -11 14 -20 21 -20
15z"/>
<path d="M4192 6745 c0 -16 2 -22 5 -12 2 9 2 23 0 30 -3 6 -5 -1 -5 -18z"/>
<path d="M3928 6733 c-8 -10 -25 -35 -38 -57 -19 -31 -20 -40 -9 -47 8 -5 19
-9 24 -9 6 1 2 5 -7 11 -15 8 -16 13 -6 29 9 14 15 16 21 7 6 -8 7 -6 3 6 -8
24 12 60 29 53 9 -3 12 0 8 10 -7 18 -7 18 -25 -3z"/>
<path d="M4270 6656 c0 -2 8 -10 18 -17 15 -13 16 -12 3 4 -13 16 -21 21 -21
13z"/>
<path d="M3960 6628 c0 -10 71 -10 87 0 6 4 -11 7 -38 7 -27 0 -49 -3 -49 -7z"/>
<path d="M4178 6633 c12 -2 32 -2 45 0 12 2 2 4 -23 4 -25 0 -35 -2 -22 -4z"/>
<path d="M3915 6610 c-3 -6 1 -7 9 -4 18 7 21 14 7 14 -6 0 -13 -4 -16 -10z"/>
<path d="M3850 6589 c0 -5 5 -7 10 -4 6 3 10 8 10 11 0 2 -4 4 -10 4 -5 0 -10
-5 -10 -11z"/>
<path d="M7280 6650 c0 -5 6 -10 13 -10 9 0 8 -3 -2 -9 -8 -5 -9 -11 -3 -15 6
-3 8 -25 6 -49 -3 -30 -2 -36 5 -22 4 11 6 24 4 28 -3 4 1 15 8 23 9 12 9 20
-1 39 -14 25 -30 33 -30 15z"/>
<path d="M7260 6565 c0 -5 5 -17 10 -25 5 -8 10 -10 10 -5 0 6 -5 17 -10 25
-5 8 -10 11 -10 5z"/>
<path d="M7255 6519 c4 -17 2 -30 -5 -34 -9 -6 -9 -10 1 -17 11 -7 11 -11 2
-15 -7 -2 -13 -9 -13 -15 0 -7 5 -6 14 1 15 12 16 84 2 98 -4 4 -5 -4 -1 -18z"/>
<path d="M7210 6359 c-12 -16 -21 -32 -18 -34 2 -2 13 12 26 31 28 42 21 45
-8 3z"/>
<path d="M7612 7491 c-11 -6 -10 -10 4 -15 9 -3 19 -4 22 -1 3 3 0 5 -7 5 -7
0 -9 5 -6 10 7 12 4 12 -13 1z"/>
<path d="M7651 7465 c4 -3 17 -8 29 -10 13 -3 27 -10 31 -16 4 -7 9 -8 13 -1
3 6 2 13 -2 16 -13 8 -77 18 -71 11z"/>
<path d="M10572 7415 c0 -16 2 -22 5 -12 2 9 2 23 0 30 -3 6 -5 -1 -5 -18z"/>
<path d="M10571 7344 c0 -11 3 -14 6 -6 3 7 2 16 -1 19 -3 4 -6 -2 -5 -13z"/>
<path d="M10573 7240 c0 -25 2 -35 4 -22 2 12 2 32 0 45 -2 12 -4 2 -4 -23z"/>
<path d="M10577 6705 c3 -33 7 -62 9 -64 7 -8 2 74 -6 99 -5 16 -6 2 -3 -35z"/>
<path d="M10562 6110 c0 -14 4 -36 8 -50 6 -20 8 -21 8 -5 0 11 -4 34 -8 50
-7 27 -8 27 -8 5z"/>
<path d="M10732 7310 c0 -19 2 -27 5 -17 2 9 2 25 0 35 -3 9 -5 1 -5 -18z"/>
<path d="M10753 7240 c0 -25 2 -35 4 -22 2 12 2 32 0 45 -2 12 -4 2 -4 -23z"/>
<path d="M8215 6757 c-10 -8 -14 -16 -9 -19 5 -3 17 3 27 14 20 21 9 24 -18 5z"/>
<path d="M10904 6400 c0 -91 2 -128 3 -82 2 45 2 119 0 165 -1 45 -3 8 -3 -83z"/>
<path d="M10904 6040 c0 -69 1 -97 3 -62 2 34 2 90 0 125 -2 34 -3 6 -3 -63z"/>
<path d="M3648 6273 c7 -3 16 -2 19 1 4 3 -2 6 -13 5 -11 0 -14 -3 -6 -6z"/>
<path d="M3701 6234 c0 -11 3 -14 6 -6 3 7 2 16 -1 19 -3 4 -6 -2 -5 -13z"/>
<path d="M3669 6206 c6 -7 8 -22 4 -32 -6 -17 -7 -16 -15 2 -7 17 -8 16 -4 -3
2 -13 0 -23 -6 -23 -5 0 -6 -5 -2 -11 4 -7 14 0 25 18 12 17 19 22 19 12 0 -8
-7 -24 -15 -35 -8 -10 -15 -23 -15 -27 0 -14 27 18 34 40 7 23 -11 73 -27 73
-5 0 -4 -6 2 -14z"/>
<path d="M3615 6110 c-10 -16 16 -43 28 -31 11 11 2 41 -12 41 -5 0 -13 -5
-16 -10z m25 -16 c0 -8 -4 -12 -10 -9 -5 3 -10 10 -10 16 0 5 5 9 10 9 6 0 10
-7 10 -16z"/>
<path d="M3544 5826 c-3 -9 -11 -16 -18 -16 -6 0 -12 -9 -12 -20 0 -11 4 -20
8 -20 4 0 8 5 8 12 0 6 7 20 17 30 9 10 13 21 10 24 -4 4 -9 -1 -13 -10z"/>
<path d="M3557 5803 c-4 -3 -7 -11 -7 -17 0 -6 5 -5 12 2 6 6 9 14 7 17 -3 3
-9 2 -12 -2z"/>
<path d="M3493 5743 c0 -8 6 -9 19 -2 10 5 18 11 18 12 0 2 -8 3 -18 3 -10 0
-19 -6 -19 -13z"/>
<path d="M3044 4936 c4 -42 9 -83 12 -91 13 -34 145 -25 224 15 46 24 66 56
56 95 -9 35 -32 42 -176 50 l-123 8 7 -77z"/>
<path d="M3109 4672 c-52 -3 -59 -13 -59 -89 0 -74 -2 -73 137 -73 154 0 192
16 193 83 0 43 -17 66 -53 71 -45 7 -163 12 -218 8z"/>
<path d="M6880 4760 l0 -230 38 -1 c121 -3 198 21 254 78 91 93 92 218 3 304
-57 56 -118 77 -217 78 l-78 1 0 -230z"/>
<path d="M1883 3203 c3 -170 9 -316 13 -327 7 -18 19 -18 233 -14 200 4 231 7
273 25 80 36 129 96 153 190 18 71 19 142 1 208 -19 72 -39 106 -89 152 -70
65 -112 73 -370 73 l-220 0 6 -307z"/>
<path d="M4183 3258 c-23 -85 -53 -183 -140 -463 -28 -88 -53 -177 -57 -197
-7 -36 -6 -37 26 -42 58 -9 386 -18 416 -11 29 6 29 7 21 50 -27 142 -220 745
-239 745 -3 0 -15 -37 -27 -82z"/>
<path d="M8394 3496 c-7 -17 1 -605 12 -1013 l7 -223 190 0 c117 0 206 5 231
12 125 36 240 163 302 332 127 351 23 709 -245 845 -88 46 -130 53 -313 58
-160 5 -178 4 -184 -11z"/>
<path d="M10911 3377 c-1 -10 -28 -100 -60 -200 -33 -100 -78 -243 -101 -317
-23 -74 -54 -174 -70 -222 l-29 -88 240 0 c156 0 239 4 239 10 0 6 -25 108
-56 228 -30 119 -75 296 -100 392 -45 180 -62 231 -63 197z"/>
<path d="M4575 1293 c-75 -39 -111 -107 -103 -193 7 -66 41 -114 102 -145 55
-28 86 -31 137 -13 72 24 117 77 133 155 16 70 -40 170 -111 199 -43 18 -121
17 -158 -3z"/>
<path d="M7469 1150 c-20 -60 -33 -112 -31 -115 3 -3 41 -5 84 -5 58 0 78 3
78 13 0 40 -72 217 -88 217 -4 0 -23 -49 -43 -110z"/>
<path d="M6577 1295 c-12 -31 -8 -150 7 -170 30 -41 210 11 230 67 5 14 6 37
2 51 -10 43 -47 59 -145 65 -77 4 -89 2 -94 -13z"/>
<path d="M1858 1393 c12 -2 32 -2 45 0 12 2 2 4 -23 4 -25 0 -35 -2 -22 -4z"/>
<path d="M2248 1393 c6 -2 18 -2 25 0 6 3 1 5 -13 5 -14 0 -19 -2 -12 -5z"/>
<path d="M1664 1381 c3 -5 15 -7 26 -4 28 7 25 13 -6 13 -14 0 -23 -4 -20 -9z"/>
<path d="M2390 1380 c8 -5 22 -9 30 -9 10 0 8 3 -5 9 -27 12 -43 12 -25 0z"/>
<path d="M1831 1371 c-8 -5 5 -7 35 -4 27 3 51 7 53 9 9 8 -75 3 -88 -5z"/>
<path d="M2013 1373 c9 -2 23 -2 30 0 6 3 -1 5 -18 5 -16 0 -22 -2 -12 -5z"/>
<path d="M2440 1372 c0 -6 -10 -13 -22 -15 -13 -2 17 -5 66 -6 49 0 87 1 84 4
-3 3 -27 6 -54 7 -27 1 -55 6 -61 11 -9 6 -13 6 -13 -1z"/>
<path d="M1618 1363 c6 -2 18 -2 25 0 6 3 1 5 -13 5 -14 0 -19 -2 -12 -5z"/>
<path d="M2248 1363 c7 -3 16 -2 19 1 4 3 -2 6 -13 5 -11 0 -14 -3 -6 -6z"/>
<path d="M2313 1363 c9 -2 23 -2 30 0 6 3 -1 5 -18 5 -16 0 -22 -2 -12 -5z"/>
<path d="M2048 1353 c7 -3 16 -2 19 1 4 3 -2 6 -13 5 -11 0 -14 -3 -6 -6z"/>
<path d="M11481 1386 c12 -10 60 -16 54 -6 -3 5 -18 10 -32 10 -15 0 -24 -2
-22 -4z"/>
<path d="M10975 1370 c27 -12 43 -12 25 0 -8 5 -22 9 -30 9 -10 0 -8 -3 5 -9z"/>
<path d="M11120 1373 c0 -20 19 -25 36 -9 14 15 14 16 0 16 -9 0 -16 -6 -16
-12 0 -9 -4 -8 -10 2 -6 9 -10 10 -10 3z"/>
<path d="M11180 1371 c0 -6 4 -13 10 -16 6 -3 7 1 4 9 -7 18 -14 21 -14 7z"/>
<path d="M11448 1373 c7 -3 16 -2 19 1 4 3 -2 6 -13 5 -11 0 -14 -3 -6 -6z"/>
<path d="M10865 1360 c3 -5 8 -10 11 -10 2 0 4 5 4 10 0 6 -5 10 -11 10 -5 0
-7 -4 -4 -10z"/>
<path d="M11563 1363 c9 -2 23 -2 30 0 6 3 -1 5 -18 5 -16 0 -22 -2 -12 -5z"/>
<path d="M11703 1363 c9 -2 23 -2 30 0 6 3 -1 5 -18 5 -16 0 -22 -2 -12 -5z"/>
<path d="M11265 1350 c-21 -9 -18 -11 43 -16 17 -1 32 2 32 8 0 6 -13 7 -31 3
-22 -5 -29 -4 -25 4 8 13 8 13 -19 1z"/>
<path d="M11388 1353 c7 -3 16 -2 19 1 4 3 -2 6 -13 5 -11 0 -14 -3 -6 -6z"/>
<path d="M11498 1343 c7 -3 16 -2 19 1 4 3 -2 6 -13 5 -11 0 -14 -3 -6 -6z"/>
<path d="M11778 1338 c7 -9 9 -24 5 -34 -6 -17 -5 -17 10 -5 22 18 21 23 -5
40 -21 13 -22 13 -10 -1z"/>
<path d="M11368 1333 c6 -2 18 -2 25 0 6 3 1 5 -13 5 -14 0 -19 -2 -12 -5z"/>
<path d="M11453 1334 c9 -3 17 -9 17 -12 0 -4 19 -8 43 -8 49 -2 26 10 -38 19
-22 3 -32 3 -22 1z"/>
<path d="M11762 1310 c0 -14 2 -19 5 -12 2 6 2 18 0 25 -3 6 -5 1 -5 -13z"/>
<path d="M1240 966 c0 -2 9 -6 20 -9 11 -3 18 -1 14 4 -5 9 -34 13 -34 5z"/>
<path d="M1904 963 c4 -4 16 -8 28 -10 28 -4 18 6 -12 12 -12 2 -20 1 -16 -2z"/>
<path d="M2407 954 c5 -13 7 -13 14 -2 6 10 11 9 22 -6 8 -10 20 -16 28 -13
11 4 10 6 -2 6 -9 1 -19 8 -23 16 -3 8 -14 15 -25 15 -15 0 -19 -5 -14 -16z"/>
<path d="M2148 953 c6 -2 18 -2 25 0 6 3 1 5 -13 5 -14 0 -19 -2 -12 -5z"/>
<path d="M2280 949 c0 -5 9 -9 20 -9 11 0 20 2 20 4 0 2 -9 6 -20 9 -11 3 -20
1 -20 -4z"/>
<path d="M2359 957 c-1 -4 -2 -10 -3 -14 -1 -5 -5 -14 -9 -20 -5 -7 -4 -13 2
-13 11 0 25 39 17 47 -3 4 -7 3 -7 0z"/>
<path d="M2558 953 c7 -3 16 -2 19 1 4 3 -2 6 -13 5 -11 0 -14 -3 -6 -6z"/>
<path d="M2508 943 c6 -2 18 -2 25 0 6 3 1 5 -13 5 -14 0 -19 -2 -12 -5z"/>
<path d="M2143 933 c15 -2 39 -2 55 0 15 2 2 4 -28 4 -30 0 -43 -2 -27 -4z"/>
<path d="M3359 8115 c-38 -20 -59 -73 -59 -145 0 -67 8 -90 49 -133 79 -86
164 -73 220 33 17 32 31 64 31 71 0 61 -54 145 -111 175 -35 18 -96 18 -130
-1z"/>
<path d="M11155 6891 c-12 -5 9 -7 50 -4 91 6 105 11 30 12 -33 0 -69 -4 -80
-8z"/>
<path d="M11450 6830 c0 -5 5 -10 10 -10 6 0 10 -7 10 -15 0 -9 6 -12 15 -9
17 7 12 20 -16 34 -13 7 -19 7 -19 0z"/>
<path d="M11447 6766 c-10 -26 -8 -33 4 -16 8 11 9 5 5 -25 -5 -37 -5 -38 5
-12 7 19 8 36 2 50 -9 19 -10 19 -16 3z"/>
<path d="M11486 6764 c-4 -9 -4 -19 -1 -22 2 -3 7 3 11 12 4 9 4 19 1 22 -2 3
-7 -3 -11 -12z"/>
<path d="M11472 6680 c0 -14 2 -19 5 -12 2 6 2 18 0 25 -3 6 -5 1 -5 -13z"/>
<path d="M11457 6570 c-9 -98 -9 -100 -19 -100 -4 0 -8 -8 -8 -17 0 -24 19 -4
26 28 9 38 17 136 12 151 -3 7 -8 -21 -11 -62z"/>
<path d="M11100 6586 c0 -14 4 -27 8 -30 5 -3 6 8 4 25 -5 35 -12 38 -12 5z"/>
<path d="M11390 6472 c0 -4 5 -13 11 -19 6 -6 11 -32 11 -59 1 -33 4 -41 9
-27 9 24 -8 113 -22 113 -5 0 -9 -4 -9 -8z"/>
<path d="M11362 6450 c0 -14 2 -19 5 -12 2 6 2 18 0 25 -3 6 -5 1 -5 -13z"/>
<path d="M11099 6443 c-13 -73 -14 -303 -1 -303 4 0 7 70 7 155 0 136 -2 175
-6 148z"/>
<path d="M11366 6349 c-3 -17 -2 -38 2 -46 6 -10 9 1 9 31 1 54 -2 58 -11 15z"/>
<path d="M11391 6334 c0 -11 3 -14 6 -6 3 7 2 16 -1 19 -3 4 -6 -2 -5 -13z"/>
<path d="M11392 6280 c0 -14 2 -19 5 -12 2 6 2 18 0 25 -3 6 -5 1 -5 -13z"/>
<path d="M11361 6204 c0 -11 3 -14 6 -6 3 7 2 16 -1 19 -3 4 -6 -2 -5 -13z"/>
<path d="M11382 6170 c0 -14 2 -19 5 -12 2 6 2 18 0 25 -3 6 -5 1 -5 -13z"/>
<path d="M11048 6123 c6 -2 18 -2 25 0 6 3 1 5 -13 5 -14 0 -19 -2 -12 -5z"/>
<path d="M11367 6123 c-4 -3 -7 -13 -7 -22 1 -13 3 -13 11 2 11 19 8 33 -4 20z"/>
<path d="M11041 6096 c12 -10 60 -16 54 -6 -3 5 -18 10 -32 10 -15 0 -24 -2
-22 -4z"/>
<path d="M11350 6065 c-9 -11 -10 -19 -3 -26 7 -7 12 -2 15 15 6 30 5 31 -12
11z"/>
<path d="M11306 5994 c-18 -18 -20 -30 -6 -39 6 -3 10 3 10 14 0 34 18 33 23
-1 4 -33 4 -33 5 5 2 40 -7 46 -32 21z"/>
<path d="M11283 5909 c0 -19 2 -28 5 -20 3 9 9 4 18 -15 7 -16 13 -22 13 -14
0 8 -8 30 -18 49 l-18 33 0 -33z"/>
<path d="M11292 5845 c0 -11 3 -29 8 -40 11 -25 11 1 0 35 -6 20 -8 21 -8 5z"/>
<path d="M11230 5655 c0 -14 2 -25 4 -25 2 0 6 11 8 25 3 14 1 25 -3 25 -5 0
-9 -11 -9 -25z"/>
<path d="M11261 5663 c0 -6 -4 -20 -7 -30 -5 -14 -4 -15 5 -7 7 7 11 20 8 30
-3 11 -5 14 -6 7z"/>
<path d="M11207 5606 c-4 -10 -3 -15 3 -11 13 8 13 -7 0 -39 -5 -14 -6 -26 -1
-26 13 0 22 60 12 77 -7 13 -9 13 -14 -1z"/>
<path d="M11232 5548 c-6 -22 -15 -33 -25 -32 -9 1 -14 -3 -10 -9 4 -7 -13 -8
-53 -5 -35 4 -51 3 -39 -2 11 -5 38 -9 61 -9 45 -1 67 16 78 62 9 38 -2 34
-12 -5z"/>
<path d="M11050 5551 c0 -5 7 -11 15 -15 9 -3 15 0 15 9 0 8 -7 15 -15 15 -8
0 -15 -4 -15 -9z"/>
<path d="M845 5400 c3 -5 11 -10 16 -10 6 0 7 5 4 10 -3 6 -11 10 -16 10 -6 0
-7 -4 -4 -10z"/>
<path d="M884 5351 c-4 -23 -11 -44 -15 -47 -14 -8 -11 -21 5 -21 9 0 15 17
19 51 6 63 0 74 -9 17z"/>
<path d="M923 5325 c0 -38 2 -53 4 -32 2 20 2 52 0 70 -2 17 -4 1 -4 -38z"/>
<path d="M859 5378 c-7 -25 -7 -48 1 -53 6 -4 10 7 10 24 0 17 -2 31 -5 31 -3
0 -5 -1 -6 -2z"/>
<path d="M12195 5269 c-4 -6 -5 -12 -2 -15 2 -3 7 2 10 11 7 17 1 20 -8 4z"/>
<path d="M12150 5221 c0 -5 5 -13 10 -16 6 -3 10 -2 10 4 0 5 -4 13 -10 16 -5
3 -10 2 -10 -4z"/>
<path d="M12136 5184 c-4 -9 -4 -19 -1 -22 2 -3 7 3 11 12 4 9 4 19 1 22 -2 3
-7 -3 -11 -12z"/>
<path d="M1130 5082 c0 -7 -7 -9 -17 -5 -15 6 -16 5 -3 -9 11 -11 17 -12 22
-4 7 10 12 1 9 -16 0 -5 4 -8 9 -8 15 0 12 26 -5 40 -10 8 -15 9 -15 2z"/>
<path d="M12048 5073 c7 -3 16 -2 19 1 4 3 -2 6 -13 5 -11 0 -14 -3 -6 -6z"/>
<path d="M1175 5040 c3 -5 -2 -10 -12 -11 -16 0 -16 -1 2 -9 27 -12 43 -12 25
0 -11 7 -11 10 -2 10 7 0 10 5 7 10 -3 6 -11 10 -16 10 -6 0 -7 -4 -4 -10z"/>
<path d="M1215 5020 c3 -5 11 -10 16 -10 6 0 7 5 4 10 -3 6 -11 10 -16 10 -6
0 -7 -4 -4 -10z"/>
<path d="M2058 4963 c7 -3 16 -2 19 1 4 3 -2 6 -13 5 -11 0 -14 -3 -6 -6z"/>
<path d="M2133 4963 c26 -2 68 -2 95 0 26 2 4 3 -48 3 -52 0 -74 -1 -47 -3z"/>
<path d="M12066 4889 c-8 -42 0 -50 9 -9 4 17 5 34 2 36 -2 3 -7 -10 -11 -27z"/>
<path d="M12081 4814 c0 -11 3 -14 6 -6 3 7 2 16 -1 19 -3 4 -6 -2 -5 -13z"/>
<path d="M12222 1000 c0 -19 2 -27 5 -17 2 9 2 25 0 35 -3 9 -5 1 -5 -18z"/>
<path d="M12130 859 c0 -5 9 -9 20 -9 11 0 20 2 20 4 0 2 -9 6 -20 9 -11 3
-20 1 -20 -4z"/>
<path d="M12188 853 c7 -3 16 -2 19 1 4 3 -2 6 -13 5 -11 0 -14 -3 -6 -6z"/>
<path d="M12140 819 c0 -18 2 -19 15 -5 8 8 15 17 15 20 0 3 -7 6 -15 6 -9 0
-15 -9 -15 -21z"/>
<path d="M12188 823 c7 -3 16 -2 19 1 4 3 -2 6 -13 5 -11 0 -14 -3 -6 -6z"/>
<path d="M12175 772 c-4 -24 -5 -46 -2 -49 8 -7 20 63 14 79 -2 7 -7 -6 -12
-30z"/>
<path d="M12207 786 c-10 -25 -9 -38 3 -31 6 3 10 1 10 -6 0 -7 2 -10 5 -8 2
3 1 18 -3 34 -7 24 -9 26 -15 11z"/>
<path d="M12188 703 c6 -2 18 -2 25 0 6 3 1 5 -13 5 -14 0 -19 -2 -12 -5z"/>
<path d="M12235 691 c-3 -6 -16 -12 -28 -12 -18 -1 -18 -2 -4 -6 10 -3 24 0
32 7 10 8 17 6 29 -12 9 -12 16 -18 16 -12 0 18 -37 47 -45 35z"/>
<path d="M12363 565 c0 -8 4 -12 9 -9 5 3 6 10 3 15 -9 13 -12 11 -12 -6z"/>
</g>
</svg>
